<svg xmlns="http://www.w3.org/2000/svg" width="1200" height="1200" xmlns:v="https://vecta.io/nano"><path d="M0 0h1200v1200H0z" fill="#fff" fill-opacity="0" pointer-events="none"/><path d="M600.864.36c331.2 0 600 268.8 600 600s-268.8 600-600 600-600-268.8-600-600 268.8-600 600-600z" fill="#ff8a88"/><path d="M453.013 441.911c-23.438 4.798-45.183 16.361-62.374 33.528a123.08 123.08 0 0 0-36.01 86.97v245.959a123.08 123.08 0 0 0 122.98 122.979h245.959a123.08 123.08 0 0 0 122.98-122.979V562.409a123.08 123.08 0 0 0-36.01-86.97 123.25 123.25 0 0 0-62.374-33.528v-76.27c0-198.777-295.151-197.582-295.151 0zm270.555 46.71a73.7 73.7 0 0 1 52.167 21.62c13.846 13.824 21.62 32.59 21.62 52.167v245.959a73.7 73.7 0 0 1-21.62 52.167c-13.824 13.846-32.59 21.62-52.167 21.62H477.609a73.7 73.7 0 0 1-52.167-21.62c-13.846-13.824-21.62-32.59-21.62-52.167V562.409a73.7 73.7 0 0 1 21.62-52.167c13.824-13.846 32.59-21.62 52.167-21.62zM575.993 730.378v28.801c0 13.577 11.019 24.596 24.596 24.596s24.596-11.019 24.596-24.596v-28.801c28.654-10.135 49.192-37.487 49.192-69.583 0-40.731-33.057-73.788-73.788-73.788s-73.788 33.057-73.788 73.788c0 32.096 20.538 59.448 49.192 69.583zm24.596-94.178c13.577 0 24.596 11.019 24.596 24.596s-11.019 24.596-24.596 24.596-24.596-11.019-24.596-24.596 11.019-24.596 24.596-24.596zm98.384-196.767H502.205v-73.788c0-131.709 196.767-132.521 196.767 0z" fill-rule="evenodd" fill="#2b314c"/></svg>